<svg width="16" height="4" viewBox="0 0 16 4" fill="none" xmlns="http://www.w3.org/2000/svg">
<path d="M2.22498 3.5C1.80831 3.5 1.45431 3.354 1.16298 3.062C0.870976 2.77067 0.724976 2.41667 0.724976 2C0.724976 1.58333 0.870976 1.22933 1.16298 0.938C1.45431 0.646 1.80831 0.5 2.22498 0.5C2.64164 0.5 2.99598 0.646 3.28798 0.938C3.57931 1.22933 3.72498 1.58333 3.72498 2C3.72498 2.41667 3.57931 2.77067 3.28798 3.062C2.99598 3.354 2.64164 3.5 2.22498 3.5ZM7.99998 3.5C7.58331 3.5 7.22931 3.354 6.93798 3.062C6.64598 2.77067 6.49998 2.41667 6.49998 2C6.49998 1.58333 6.64598 1.22933 6.93798 0.938C7.22931 0.646 7.58331 0.5 7.99998 0.5C8.41664 0.5 8.77064 0.646 9.06198 0.938C9.35398 1.22933 9.49998 1.58333 9.49998 2C9.49998 2.41667 9.35398 2.77067 9.06198 3.062C8.77064 3.354 8.41664 3.5 7.99998 3.5ZM13.775 3.5C13.3583 3.5 13.0043 3.354 12.713 3.062C12.421 2.77067 12.275 2.41667 12.275 2C12.275 1.58333 12.421 1.22933 12.713 0.938C13.0043 0.646 13.3583 0.5 13.775 0.5C14.1916 0.5 14.546 0.646 14.838 0.938C15.1293 1.22933 15.275 1.58333 15.275 2C15.275 2.41667 15.1293 2.77067 14.838 3.062C14.546 3.354 14.1916 3.5 13.775 3.5Z" fill="white"/>
</svg>
