<svg width="20" height="20" viewBox="0 0 20 20" fill="none" xmlns="http://www.w3.org/2000/svg">
<path d="M7.69998 19.5L7.29998 16.45C7.03331 16.3667 6.76264 16.2417 6.48798 16.075C6.21264 15.9083 5.95831 15.7333 5.72498 15.55L2.89998 16.75L0.599976 12.75L3.04998 10.9C3.01664 10.75 2.99598 10.6 2.98798 10.45C2.97931 10.3 2.97498 10.15 2.97498 10C2.97498 9.86667 2.97931 9.725 2.98798 9.575C2.99598 9.425 3.01664 9.26667 3.04998 9.1L0.599976 7.25L2.89998 3.275L5.72498 4.45C5.95831 4.26667 6.21264 4.096 6.48798 3.938C6.76264 3.77933 7.03331 3.65 7.29998 3.55L7.69998 0.5H12.3L12.7 3.55C13 3.66667 13.2706 3.79567 13.512 3.937C13.754 4.079 14 4.25 14.25 4.45L17.1 3.275L19.4 7.25L16.925 9.125C16.9583 9.29167 16.975 9.44167 16.975 9.575C16.975 9.70833 16.975 9.85 16.975 10C16.975 10.1333 16.9706 10.2707 16.962 10.412C16.954 10.554 16.9333 10.7167 16.9 10.9L19.35 12.75L17.05 16.75L14.25 15.55C14 15.75 13.746 15.925 13.488 16.075C13.2293 16.225 12.9666 16.35 12.7 16.45L12.3 19.5H7.69998ZM9.99998 13C10.8333 13 11.5416 12.7083 12.125 12.125C12.7083 11.5417 13 10.8333 13 10C13 9.16667 12.7083 8.45833 12.125 7.875C11.5416 7.29167 10.8333 7 9.99998 7C9.16664 7 8.45831 7.29167 7.87498 7.875C7.29164 8.45833 6.99998 9.16667 6.99998 10C6.99998 10.8333 7.29164 11.5417 7.87498 12.125C8.45831 12.7083 9.16664 13 9.99998 13ZM9.99998 11.5C9.58331 11.5 9.22931 11.354 8.93798 11.062C8.64598 10.7707 8.49998 10.4167 8.49998 10C8.49998 9.58333 8.64598 9.22933 8.93798 8.938C9.22931 8.646 9.58331 8.5 9.99998 8.5C10.4166 8.5 10.7706 8.646 11.062 8.938C11.354 9.22933 11.5 9.58333 11.5 10C11.5 10.4167 11.354 10.7707 11.062 11.062C10.7706 11.354 10.4166 11.5 9.99998 11.5ZM8.99998 18H10.975L11.325 15.325C11.8416 15.1917 12.3083 15 12.725 14.75C13.1416 14.5 13.55 14.1833 13.95 13.8L16.425 14.85L17.425 13.15L15.25 11.525C15.3333 11.2583 15.3876 11 15.413 10.75C15.4376 10.5 15.45 10.25 15.45 10C15.45 9.73333 15.4376 9.47933 15.413 9.238C15.3876 8.996 15.3333 8.75 15.25 8.5L17.425 6.85L16.45 5.15L13.925 6.2C13.5916 5.85 13.1916 5.53733 12.725 5.262C12.2583 4.98733 11.7916 4.79167 11.325 4.675L11 2H9.02498L8.67498 4.675C8.17498 4.79167 7.70831 4.975 7.27498 5.225C6.84164 5.475 6.42498 5.79167 6.02498 6.175L3.54998 5.15L2.57498 6.85L4.72498 8.45C4.64164 8.7 4.58331 8.95 4.54998 9.2C4.51664 9.45 4.49998 9.71667 4.49998 10C4.49998 10.2667 4.51664 10.525 4.54998 10.775C4.58331 11.025 4.64164 11.275 4.72498 11.525L2.57498 13.15L3.54998 14.85L6.02498 13.8C6.40831 14.1833 6.81664 14.5 7.24998 14.75C7.68331 15 8.15831 15.1917 8.67498 15.325L8.99998 18Z" fill="white"/>
</svg>
