<svg width="14" height="18" viewBox="0 0 14 18" fill="none" xmlns="http://www.w3.org/2000/svg">
<path d="M3.3 16H10.7C10.7667 16 10.8333 15.9667 10.9 15.9C10.9667 15.8334 11 15.7667 11 15.7V6.00005H3V15.7C3 15.7667 3.03333 15.8334 3.1 15.9C3.16667 15.9667 3.23333 16 3.3 16ZM0.625 3.30005V1.80005H3.6L4.6 0.800049H9.4L10.4 1.80005H13.375V3.30005H0.625ZM3.3 17.5C2.8 17.5 2.375 17.3251 2.025 16.975C1.675 16.625 1.5 16.2 1.5 15.7V4.50005H12.5V15.7C12.5 16.2 12.325 16.625 11.975 16.975C11.625 17.3251 11.2 17.5 10.7 17.5H3.3ZM3 16H11C11 16 10.9667 16 10.9 16C10.8333 16 10.7667 16 10.7 16H3.3C3.23333 16 3.16667 16 3.1 16C3.03333 16 3 16 3 16Z" fill="white"/>
</svg>
