<svg width="19" height="21" viewBox="0 0 19 21" fill="none" xmlns="http://www.w3.org/2000/svg">
<path d="M2.25002 16.875V15.375H4.25002V8.12505C4.25002 7.87505 4.26669 7.64172 4.30002 7.42505C4.33336 7.20838 4.37502 6.99171 4.42502 6.77505L0.0250244 2.37505L1.10002 1.32505L18.925 19.15L17.875 20.225L14.5 16.875H2.25002ZM15.75 13.15L14.25 11.65V8.12505C14.25 6.94172 13.8334 5.93738 13 5.11205C12.1667 4.28738 11.1667 3.87505 10 3.87505C9.53336 3.87505 9.07102 3.95405 8.61302 4.11205C8.15436 4.27072 7.75002 4.50005 7.40002 4.80005L6.32502 3.72505C6.67502 3.42505 7.05836 3.17072 7.47502 2.96205C7.89169 2.75405 8.31669 2.60005 8.75002 2.50005V1.80005C8.75002 1.45005 8.87102 1.15405 9.11302 0.912049C9.35436 0.670715 9.65002 0.550049 10 0.550049C10.35 0.550049 10.6457 0.670715 10.887 0.912049C11.129 1.15405 11.25 1.45005 11.25 1.80005V2.50005C12.5 2.78338 13.5627 3.43772 14.438 4.46305C15.3127 5.48772 15.75 6.70838 15.75 8.12505V13.15ZM10 19.8C9.50002 19.8 9.07503 19.625 8.72503 19.275C8.37502 18.925 8.20002 18.5 8.20002 18H11.8C11.8 18.5 11.625 18.925 11.275 19.275C10.925 19.625 10.5 19.8 10 19.8ZM5.75002 15.375H12.975L5.80002 8.17505C5.78336 8.24172 5.77102 8.31238 5.76302 8.38705C5.75436 8.46238 5.75002 8.53338 5.75002 8.60005V15.375Z" fill="white"/>
</svg>
